<svg xmlns="http://www.w3.org/2000/svg" width="1920" height="1260" viewBox="0 0 1920 1260">
  <defs>
    <style>
      .cls-1 {
        fill-rule: evenodd;
      }
    </style>
  </defs>
  <path id="Color_Fill_1" data-name="Color Fill 1" class="cls-1" d="M0,0H1920V794l-172,2c14.32-29.309,15.13-40.562,15-86q-32.49-26.5-65-53l-84,18q1.5-27,3-54l-102-14-178-2c-39.13-5.973-112.38-4.831-150,1-54.63,8.467-108.8-1.982-152,15q1.5,53.994,3,108,6.495,36,13,72l-313-6L0,798V0ZM1690,693c30.85,4.8,42.4,34.931,47,67-13.62,11.836-19.54,33.048-39,39l-100-1v-3c3.08-8.96,7.09-22.082,6-31q10.995-6,22-12c1.97-24.467,8.91-48.664,29-54Z"/>
</svg>
